<?xml version="1.0" encoding="utf-8"?>
<!-- Generator: Adobe Illustrator 24.1.2, SVG Export Plug-In . SVG Version: 6.00 Build 0)  -->
<svg version="1.1" id="Layer_1" xmlns="http://www.w3.org/2000/svg" xmlns:xlink="http://www.w3.org/1999/xlink" x="0px" y="0px"
	 viewBox="0 0 127.5 187.9" style="enable-background:new 0 0 127.5 187.9;" xml:space="preserve">
<style type="text/css">
	.st0{fill:#74B4F0;}
</style>
<g id="bef5a152-5759-4714-93b8-b3eabf9debf7">
	<g id="bc31ceaf-8eea-4069-98ba-84453b3d78a3">
		<path class="st0" d="M127.5,54.7V5.3L122.2,0H67.7l-2,2H13.5L9.3,6.2L4.5,11l-2.3,2.2v96.2L0,111.7v67.1l8.9,8.9h19.7l1.7-1.8
			h28.4l2,2h57.3l9.1-9.1v-39.7l-1.9-1.9V57.1L127.5,54.7z M31.3,184.9l1.3-1.3h23.7l1.3,1.3H31.3z M121.5,59.3V135l4.5,4.5v38.8
			l-0.4,0.4l-8.1,8.1H61l-4.3-4.3H32.2l-4.1,4.1H9.3L1,178.4v-66.3l4.5-4.5V11.4l4.2-4.2h52.2L68.1,1h53.7l4.7,4.7v48.5L121.5,59.3z
			 M124.1,58.1v78.1l-1.6-1.6V59.7L124.1,58.1z"/>
	</g>
</g>
</svg>
