<svg xmlns="http://www.w3.org/2000/svg" width="283.68" height="283.67" viewBox="0 0 283.68 283.67"><defs><style>.acac25e2-0e9c-4fc1-b442-57487254230f,.b1ea6f20-abc7-42dc-8afd-168a3d367946{fill:none;stroke-miterlimit:10;}.b1ea6f20-abc7-42dc-8afd-168a3d367946{stroke:#51b6c7;stroke-width:0.2px;}.acac25e2-0e9c-4fc1-b442-57487254230f{stroke:#21768f;stroke-width:0.15px;}</style></defs><g id="b54ce9d2-426d-440a-b057-b24b0a36fe3f" data-name="Layer 2"><g id="aa476a82-10b0-4dcc-b94e-89452945d96f" data-name="Layer 1"><rect class="b1ea6f20-abc7-42dc-8afd-168a3d367946" x="0.1" y="226.87" width="56.69" height="56.69"/><rect class="b1ea6f20-abc7-42dc-8afd-168a3d367946" x="56.79" y="226.87" width="56.69" height="56.69"/><rect class="b1ea6f20-abc7-42dc-8afd-168a3d367946" x="113.49" y="226.87" width="56.69" height="56.69"/><rect class="b1ea6f20-abc7-42dc-8afd-168a3d367946" x="170.18" y="226.87" width="56.69" height="56.69"/><rect class="b1ea6f20-abc7-42dc-8afd-168a3d367946" x="226.87" y="226.87" width="56.69" height="56.69"/><rect class="b1ea6f20-abc7-42dc-8afd-168a3d367946" x="0.1" y="170.18" width="56.69" height="56.69"/><rect class="b1ea6f20-abc7-42dc-8afd-168a3d367946" x="56.79" y="170.18" width="56.69" height="56.69"/><rect class="b1ea6f20-abc7-42dc-8afd-168a3d367946" x="113.49" y="170.18" width="56.69" height="56.69"/><rect class="b1ea6f20-abc7-42dc-8afd-168a3d367946" x="170.18" y="170.18" width="56.69" height="56.69"/><rect class="b1ea6f20-abc7-42dc-8afd-168a3d367946" x="226.87" y="170.18" width="56.69" height="56.69"/><rect class="b1ea6f20-abc7-42dc-8afd-168a3d367946" x="0.1" y="113.49" width="56.69" height="56.69"/><rect class="b1ea6f20-abc7-42dc-8afd-168a3d367946" x="56.79" y="113.49" width="56.69" height="56.69"/><rect class="b1ea6f20-abc7-42dc-8afd-168a3d367946" x="113.49" y="113.49" width="56.69" height="56.69"/><rect class="b1ea6f20-abc7-42dc-8afd-168a3d367946" x="170.18" y="113.49" width="56.69" height="56.69"/><rect class="b1ea6f20-abc7-42dc-8afd-168a3d367946" x="226.87" y="113.49" width="56.69" height="56.69"/><rect class="b1ea6f20-abc7-42dc-8afd-168a3d367946" x="0.1" y="56.79" width="56.69" height="56.69"/><rect class="b1ea6f20-abc7-42dc-8afd-168a3d367946" x="56.79" y="56.79" width="56.69" height="56.69"/><rect class="b1ea6f20-abc7-42dc-8afd-168a3d367946" x="113.49" y="56.79" width="56.69" height="56.69"/><rect class="b1ea6f20-abc7-42dc-8afd-168a3d367946" x="170.18" y="56.79" width="56.69" height="56.69"/><rect class="b1ea6f20-abc7-42dc-8afd-168a3d367946" x="226.87" y="56.79" width="56.69" height="56.69"/><rect class="b1ea6f20-abc7-42dc-8afd-168a3d367946" x="0.1" y="0.1" width="56.69" height="56.69"/><rect class="b1ea6f20-abc7-42dc-8afd-168a3d367946" x="56.79" y="0.1" width="56.69" height="56.69"/><rect class="b1ea6f20-abc7-42dc-8afd-168a3d367946" x="113.49" y="0.1" width="56.69" height="56.69"/><rect class="b1ea6f20-abc7-42dc-8afd-168a3d367946" x="170.18" y="0.1" width="56.69" height="56.69"/><rect class="b1ea6f20-abc7-42dc-8afd-168a3d367946" x="226.87" y="0.1" width="56.69" height="56.69"/><rect class="acac25e2-0e9c-4fc1-b442-57487254230f" x="0.14" y="156.01" width="14.17" height="14.17"/><rect class="acac25e2-0e9c-4fc1-b442-57487254230f" x="14.31" y="156.01" width="14.17" height="14.17"/><rect class="acac25e2-0e9c-4fc1-b442-57487254230f" x="28.48" y="156.01" width="14.17" height="14.17"/><rect class="acac25e2-0e9c-4fc1-b442-57487254230f" x="42.66" y="156.01" width="14.17" height="14.17"/><rect class="acac25e2-0e9c-4fc1-b442-57487254230f" x="56.83" y="156.01" width="14.17" height="14.17"/><rect class="acac25e2-0e9c-4fc1-b442-57487254230f" x="71" y="156.01" width="14.17" height="14.17"/><rect class="acac25e2-0e9c-4fc1-b442-57487254230f" x="85.18" y="156.01" width="14.17" height="14.17"/><rect class="acac25e2-0e9c-4fc1-b442-57487254230f" x="99.35" y="156.01" width="14.17" height="14.17"/><rect class="acac25e2-0e9c-4fc1-b442-57487254230f" x="113.52" y="156.01" width="14.17" height="14.17"/><rect class="acac25e2-0e9c-4fc1-b442-57487254230f" x="127.7" y="156.01" width="14.17" height="14.17"/><rect class="acac25e2-0e9c-4fc1-b442-57487254230f" x="141.87" y="156.01" width="14.17" height="14.17"/><rect class="acac25e2-0e9c-4fc1-b442-57487254230f" x="156.04" y="156.01" width="14.17" height="14.17"/><rect class="acac25e2-0e9c-4fc1-b442-57487254230f" x="170.22" y="156.01" width="14.17" height="14.17"/><rect class="acac25e2-0e9c-4fc1-b442-57487254230f" x="184.39" y="156.01" width="14.17" height="14.17"/><rect class="acac25e2-0e9c-4fc1-b442-57487254230f" x="198.56" y="156.01" width="14.17" height="14.17"/><rect class="acac25e2-0e9c-4fc1-b442-57487254230f" x="212.74" y="156.01" width="14.17" height="14.17"/><rect class="acac25e2-0e9c-4fc1-b442-57487254230f" x="226.91" y="156.01" width="14.17" height="14.17"/><rect class="acac25e2-0e9c-4fc1-b442-57487254230f" x="241.08" y="156.01" width="14.17" height="14.17"/><rect class="acac25e2-0e9c-4fc1-b442-57487254230f" x="255.26" y="156.01" width="14.17" height="14.17"/><rect class="acac25e2-0e9c-4fc1-b442-57487254230f" x="269.43" y="156.01" width="14.17" height="14.17"/><rect class="acac25e2-0e9c-4fc1-b442-57487254230f" x="0.14" y="141.83" width="14.17" height="14.17"/><rect class="acac25e2-0e9c-4fc1-b442-57487254230f" x="14.31" y="141.83" width="14.17" height="14.17"/><rect class="acac25e2-0e9c-4fc1-b442-57487254230f" x="28.48" y="141.83" width="14.17" height="14.17"/><rect class="acac25e2-0e9c-4fc1-b442-57487254230f" x="42.66" y="141.83" width="14.17" height="14.17"/><rect class="acac25e2-0e9c-4fc1-b442-57487254230f" x="56.83" y="141.83" width="14.17" height="14.17"/><rect class="acac25e2-0e9c-4fc1-b442-57487254230f" x="71" y="141.83" width="14.17" height="14.17"/><rect class="acac25e2-0e9c-4fc1-b442-57487254230f" x="85.18" y="141.83" width="14.17" height="14.17"/><rect class="acac25e2-0e9c-4fc1-b442-57487254230f" x="99.35" y="141.83" width="14.17" height="14.17"/><rect class="acac25e2-0e9c-4fc1-b442-57487254230f" x="113.52" y="141.83" width="14.17" height="14.17"/><rect class="acac25e2-0e9c-4fc1-b442-57487254230f" x="127.7" y="141.83" width="14.17" height="14.17"/><rect class="acac25e2-0e9c-4fc1-b442-57487254230f" x="141.87" y="141.83" width="14.17" height="14.17"/><rect class="acac25e2-0e9c-4fc1-b442-57487254230f" x="156.04" y="141.83" width="14.17" height="14.17"/><rect class="acac25e2-0e9c-4fc1-b442-57487254230f" x="170.22" y="141.83" width="14.17" height="14.17"/><rect class="acac25e2-0e9c-4fc1-b442-57487254230f" x="184.39" y="141.83" width="14.17" height="14.17"/><rect class="acac25e2-0e9c-4fc1-b442-57487254230f" x="198.56" y="141.83" width="14.17" height="14.17"/><rect class="acac25e2-0e9c-4fc1-b442-57487254230f" x="212.74" y="141.83" width="14.17" height="14.17"/><rect class="acac25e2-0e9c-4fc1-b442-57487254230f" x="226.91" y="141.83" width="14.17" height="14.17"/><rect class="acac25e2-0e9c-4fc1-b442-57487254230f" x="241.08" y="141.83" width="14.17" height="14.17"/><rect class="acac25e2-0e9c-4fc1-b442-57487254230f" x="255.26" y="141.83" width="14.17" height="14.17"/><rect class="acac25e2-0e9c-4fc1-b442-57487254230f" x="269.43" y="141.83" width="14.17" height="14.17"/><rect class="acac25e2-0e9c-4fc1-b442-57487254230f" x="0.14" y="127.66" width="14.17" height="14.17"/><rect class="acac25e2-0e9c-4fc1-b442-57487254230f" x="14.31" y="127.66" width="14.17" height="14.17"/><rect class="acac25e2-0e9c-4fc1-b442-57487254230f" x="28.48" y="127.66" width="14.17" height="14.17"/><rect class="acac25e2-0e9c-4fc1-b442-57487254230f" x="42.66" y="127.66" width="14.17" height="14.17"/><rect class="acac25e2-0e9c-4fc1-b442-57487254230f" x="56.83" y="127.66" width="14.17" height="14.17"/><rect class="acac25e2-0e9c-4fc1-b442-57487254230f" x="71" y="127.66" width="14.17" height="14.17"/><rect class="acac25e2-0e9c-4fc1-b442-57487254230f" x="85.18" y="127.66" width="14.17" height="14.17"/><rect class="acac25e2-0e9c-4fc1-b442-57487254230f" x="99.35" y="127.66" width="14.17" height="14.17"/><rect class="acac25e2-0e9c-4fc1-b442-57487254230f" x="113.52" y="127.66" width="14.17" height="14.17"/><rect class="acac25e2-0e9c-4fc1-b442-57487254230f" x="127.7" y="127.66" width="14.17" height="14.17"/><rect class="acac25e2-0e9c-4fc1-b442-57487254230f" x="141.87" y="127.66" width="14.17" height="14.17"/><rect class="acac25e2-0e9c-4fc1-b442-57487254230f" x="156.04" y="127.66" width="14.17" height="14.17"/><rect class="acac25e2-0e9c-4fc1-b442-57487254230f" x="170.22" y="127.66" width="14.17" height="14.17"/><rect class="acac25e2-0e9c-4fc1-b442-57487254230f" x="184.39" y="127.66" width="14.17" height="14.17"/><rect class="acac25e2-0e9c-4fc1-b442-57487254230f" x="198.56" y="127.66" width="14.17" height="14.17"/><rect class="acac25e2-0e9c-4fc1-b442-57487254230f" x="212.74" y="127.66" width="14.17" height="14.17"/><rect class="acac25e2-0e9c-4fc1-b442-57487254230f" x="226.91" y="127.66" width="14.17" height="14.17"/><rect class="acac25e2-0e9c-4fc1-b442-57487254230f" x="241.08" y="127.66" width="14.17" height="14.17"/><rect class="acac25e2-0e9c-4fc1-b442-57487254230f" x="255.26" y="127.66" width="14.17" height="14.17"/><rect class="acac25e2-0e9c-4fc1-b442-57487254230f" x="269.43" y="127.66" width="14.17" height="14.17"/><rect class="acac25e2-0e9c-4fc1-b442-57487254230f" x="0.14" y="113.49" width="14.17" height="14.17"/><rect class="acac25e2-0e9c-4fc1-b442-57487254230f" x="14.31" y="113.49" width="14.17" height="14.17"/><rect class="acac25e2-0e9c-4fc1-b442-57487254230f" x="28.48" y="113.49" width="14.17" height="14.17"/><rect class="acac25e2-0e9c-4fc1-b442-57487254230f" x="42.66" y="113.49" width="14.17" height="14.17"/><rect class="acac25e2-0e9c-4fc1-b442-57487254230f" x="56.83" y="113.49" width="14.17" height="14.17"/><rect class="acac25e2-0e9c-4fc1-b442-57487254230f" x="71" y="113.49" width="14.17" height="14.17"/><rect class="acac25e2-0e9c-4fc1-b442-57487254230f" x="85.18" y="113.49" width="14.17" height="14.17"/><rect class="acac25e2-0e9c-4fc1-b442-57487254230f" x="99.35" y="113.49" width="14.17" height="14.17"/><rect class="acac25e2-0e9c-4fc1-b442-57487254230f" x="113.52" y="113.49" width="14.17" height="14.17"/><rect class="acac25e2-0e9c-4fc1-b442-57487254230f" x="127.7" y="113.49" width="14.17" height="14.17"/><rect class="acac25e2-0e9c-4fc1-b442-57487254230f" x="141.87" y="113.49" width="14.17" height="14.17"/><rect class="acac25e2-0e9c-4fc1-b442-57487254230f" x="156.04" y="113.49" width="14.17" height="14.17"/><rect class="acac25e2-0e9c-4fc1-b442-57487254230f" x="170.22" y="113.49" width="14.17" height="14.17"/><rect class="acac25e2-0e9c-4fc1-b442-57487254230f" x="184.39" y="113.49" width="14.17" height="14.17"/><rect class="acac25e2-0e9c-4fc1-b442-57487254230f" x="198.56" y="113.49" width="14.17" height="14.17"/><rect class="acac25e2-0e9c-4fc1-b442-57487254230f" x="212.74" y="113.49" width="14.17" height="14.17"/><rect class="acac25e2-0e9c-4fc1-b442-57487254230f" x="226.91" y="113.49" width="14.17" height="14.17"/><rect class="acac25e2-0e9c-4fc1-b442-57487254230f" x="241.08" y="113.49" width="14.17" height="14.17"/><rect class="acac25e2-0e9c-4fc1-b442-57487254230f" x="255.26" y="113.49" width="14.17" height="14.17"/><rect class="acac25e2-0e9c-4fc1-b442-57487254230f" x="269.43" y="113.49" width="14.17" height="14.17"/><rect class="acac25e2-0e9c-4fc1-b442-57487254230f" x="0.14" y="99.31" width="14.17" height="14.17"/><rect class="acac25e2-0e9c-4fc1-b442-57487254230f" x="14.31" y="99.31" width="14.17" height="14.17"/><rect class="acac25e2-0e9c-4fc1-b442-57487254230f" x="28.48" y="99.31" width="14.17" height="14.17"/><rect class="acac25e2-0e9c-4fc1-b442-57487254230f" x="42.66" y="99.31" width="14.17" height="14.17"/><rect class="acac25e2-0e9c-4fc1-b442-57487254230f" x="56.83" y="99.31" width="14.17" height="14.17"/><rect class="acac25e2-0e9c-4fc1-b442-57487254230f" x="71" y="99.31" width="14.17" height="14.17"/><rect class="acac25e2-0e9c-4fc1-b442-57487254230f" x="85.18" y="99.31" width="14.17" height="14.17"/><rect class="acac25e2-0e9c-4fc1-b442-57487254230f" x="99.35" y="99.31" width="14.17" height="14.17"/><rect class="acac25e2-0e9c-4fc1-b442-57487254230f" x="113.52" y="99.31" width="14.17" height="14.17"/><rect class="acac25e2-0e9c-4fc1-b442-57487254230f" x="127.7" y="99.31" width="14.17" height="14.17"/><rect class="acac25e2-0e9c-4fc1-b442-57487254230f" x="141.87" y="99.31" width="14.17" height="14.17"/><rect class="acac25e2-0e9c-4fc1-b442-57487254230f" x="156.04" y="99.31" width="14.17" height="14.17"/><rect class="acac25e2-0e9c-4fc1-b442-57487254230f" x="170.22" y="99.31" width="14.17" height="14.17"/><rect class="acac25e2-0e9c-4fc1-b442-57487254230f" x="184.39" y="99.31" width="14.17" height="14.17"/><rect class="acac25e2-0e9c-4fc1-b442-57487254230f" x="198.56" y="99.31" width="14.17" height="14.17"/><rect class="acac25e2-0e9c-4fc1-b442-57487254230f" x="212.74" y="99.31" width="14.17" height="14.17"/><rect class="acac25e2-0e9c-4fc1-b442-57487254230f" x="226.91" y="99.31" width="14.17" height="14.17"/><rect class="acac25e2-0e9c-4fc1-b442-57487254230f" x="241.08" y="99.31" width="14.17" height="14.17"/><rect class="acac25e2-0e9c-4fc1-b442-57487254230f" x="255.26" y="99.31" width="14.17" height="14.17"/><rect class="acac25e2-0e9c-4fc1-b442-57487254230f" x="269.43" y="99.31" width="14.17" height="14.17"/><rect class="acac25e2-0e9c-4fc1-b442-57487254230f" x="0.14" y="85.14" width="14.17" height="14.17"/><rect class="acac25e2-0e9c-4fc1-b442-57487254230f" x="14.31" y="85.14" width="14.17" height="14.17"/><rect class="acac25e2-0e9c-4fc1-b442-57487254230f" x="28.48" y="85.14" width="14.17" height="14.17"/><rect class="acac25e2-0e9c-4fc1-b442-57487254230f" x="42.66" y="85.14" width="14.17" height="14.17"/><rect class="acac25e2-0e9c-4fc1-b442-57487254230f" x="56.83" y="85.14" width="14.17" height="14.17"/><rect class="acac25e2-0e9c-4fc1-b442-57487254230f" x="71" y="85.14" width="14.17" height="14.17"/><rect class="acac25e2-0e9c-4fc1-b442-57487254230f" x="85.18" y="85.14" width="14.17" height="14.17"/><rect class="acac25e2-0e9c-4fc1-b442-57487254230f" x="99.35" y="85.14" width="14.17" height="14.17"/><rect class="acac25e2-0e9c-4fc1-b442-57487254230f" x="113.52" y="85.14" width="14.17" height="14.17"/><rect class="acac25e2-0e9c-4fc1-b442-57487254230f" x="127.7" y="85.14" width="14.17" height="14.17"/><rect class="acac25e2-0e9c-4fc1-b442-57487254230f" x="141.87" y="85.14" width="14.17" height="14.17"/><rect class="acac25e2-0e9c-4fc1-b442-57487254230f" x="156.04" y="85.14" width="14.17" height="14.17"/><rect class="acac25e2-0e9c-4fc1-b442-57487254230f" x="170.22" y="85.14" width="14.17" height="14.17"/><rect class="acac25e2-0e9c-4fc1-b442-57487254230f" x="184.39" y="85.14" width="14.17" height="14.17"/><rect class="acac25e2-0e9c-4fc1-b442-57487254230f" x="198.56" y="85.14" width="14.17" height="14.17"/><rect class="acac25e2-0e9c-4fc1-b442-57487254230f" x="212.74" y="85.14" width="14.17" height="14.17"/><rect class="acac25e2-0e9c-4fc1-b442-57487254230f" x="226.91" y="85.14" width="14.17" height="14.17"/><rect class="acac25e2-0e9c-4fc1-b442-57487254230f" x="241.08" y="85.14" width="14.17" height="14.17"/><rect class="acac25e2-0e9c-4fc1-b442-57487254230f" x="255.26" y="85.14" width="14.17" height="14.17"/><rect class="acac25e2-0e9c-4fc1-b442-57487254230f" x="269.43" y="85.14" width="14.17" height="14.17"/><rect class="acac25e2-0e9c-4fc1-b442-57487254230f" x="0.14" y="70.97" width="14.17" height="14.17"/><rect class="acac25e2-0e9c-4fc1-b442-57487254230f" x="14.31" y="70.97" width="14.17" height="14.17"/><rect class="acac25e2-0e9c-4fc1-b442-57487254230f" x="28.48" y="70.97" width="14.17" height="14.17"/><rect class="acac25e2-0e9c-4fc1-b442-57487254230f" x="42.66" y="70.97" width="14.17" height="14.17"/><rect class="acac25e2-0e9c-4fc1-b442-57487254230f" x="56.83" y="70.97" width="14.17" height="14.17"/><rect class="acac25e2-0e9c-4fc1-b442-57487254230f" x="71" y="70.97" width="14.17" height="14.17"/><rect class="acac25e2-0e9c-4fc1-b442-57487254230f" x="85.18" y="70.97" width="14.17" height="14.17"/><rect class="acac25e2-0e9c-4fc1-b442-57487254230f" x="99.35" y="70.97" width="14.17" height="14.17"/><rect class="acac25e2-0e9c-4fc1-b442-57487254230f" x="113.52" y="70.97" width="14.17" height="14.17"/><rect class="acac25e2-0e9c-4fc1-b442-57487254230f" x="127.7" y="70.97" width="14.17" height="14.17"/><rect class="acac25e2-0e9c-4fc1-b442-57487254230f" x="141.87" y="70.97" width="14.17" height="14.17"/><rect class="acac25e2-0e9c-4fc1-b442-57487254230f" x="156.04" y="70.97" width="14.17" height="14.17"/><rect class="acac25e2-0e9c-4fc1-b442-57487254230f" x="170.22" y="70.97" width="14.17" height="14.17"/><rect class="acac25e2-0e9c-4fc1-b442-57487254230f" x="184.39" y="70.97" width="14.17" height="14.17"/><rect class="acac25e2-0e9c-4fc1-b442-57487254230f" x="198.56" y="70.97" width="14.17" height="14.17"/><rect class="acac25e2-0e9c-4fc1-b442-57487254230f" x="212.74" y="70.97" width="14.17" height="14.17"/><rect class="acac25e2-0e9c-4fc1-b442-57487254230f" x="226.91" y="70.97" width="14.17" height="14.17"/><rect class="acac25e2-0e9c-4fc1-b442-57487254230f" x="241.08" y="70.97" width="14.17" height="14.17"/><rect class="acac25e2-0e9c-4fc1-b442-57487254230f" x="255.26" y="70.97" width="14.17" height="14.17"/><rect class="acac25e2-0e9c-4fc1-b442-57487254230f" x="269.43" y="70.97" width="14.17" height="14.17"/><rect class="acac25e2-0e9c-4fc1-b442-57487254230f" x="0.14" y="56.79" width="14.17" height="14.17"/><rect class="acac25e2-0e9c-4fc1-b442-57487254230f" x="14.31" y="56.79" width="14.17" height="14.17"/><rect class="acac25e2-0e9c-4fc1-b442-57487254230f" x="28.48" y="56.79" width="14.17" height="14.17"/><rect class="acac25e2-0e9c-4fc1-b442-57487254230f" x="42.66" y="56.79" width="14.17" height="14.17"/><rect class="acac25e2-0e9c-4fc1-b442-57487254230f" x="56.83" y="56.79" width="14.17" height="14.17"/><rect class="acac25e2-0e9c-4fc1-b442-57487254230f" x="71" y="56.79" width="14.17" height="14.17"/><rect class="acac25e2-0e9c-4fc1-b442-57487254230f" x="85.18" y="56.79" width="14.17" height="14.17"/><rect class="acac25e2-0e9c-4fc1-b442-57487254230f" x="99.35" y="56.79" width="14.17" height="14.17"/><rect class="acac25e2-0e9c-4fc1-b442-57487254230f" x="113.52" y="56.79" width="14.17" height="14.17"/><rect class="acac25e2-0e9c-4fc1-b442-57487254230f" x="127.7" y="56.79" width="14.17" height="14.17"/><rect class="acac25e2-0e9c-4fc1-b442-57487254230f" x="141.87" y="56.79" width="14.17" height="14.17"/><rect class="acac25e2-0e9c-4fc1-b442-57487254230f" x="156.04" y="56.79" width="14.17" height="14.17"/><rect class="acac25e2-0e9c-4fc1-b442-57487254230f" x="170.22" y="56.79" width="14.17" height="14.17"/><rect class="acac25e2-0e9c-4fc1-b442-57487254230f" x="184.39" y="56.79" width="14.17" height="14.17"/><rect class="acac25e2-0e9c-4fc1-b442-57487254230f" x="198.56" y="56.79" width="14.17" height="14.17"/><rect class="acac25e2-0e9c-4fc1-b442-57487254230f" x="212.74" y="56.79" width="14.17" height="14.17"/><rect class="acac25e2-0e9c-4fc1-b442-57487254230f" x="226.91" y="56.79" width="14.17" height="14.17"/><rect class="acac25e2-0e9c-4fc1-b442-57487254230f" x="241.08" y="56.79" width="14.17" height="14.17"/><rect class="acac25e2-0e9c-4fc1-b442-57487254230f" x="255.26" y="56.79" width="14.17" height="14.17"/><rect class="acac25e2-0e9c-4fc1-b442-57487254230f" x="269.43" y="56.79" width="14.17" height="14.17"/><rect class="acac25e2-0e9c-4fc1-b442-57487254230f" x="0.14" y="42.62" width="14.17" height="14.17"/><rect class="acac25e2-0e9c-4fc1-b442-57487254230f" x="14.31" y="42.62" width="14.17" height="14.17"/><rect class="acac25e2-0e9c-4fc1-b442-57487254230f" x="28.48" y="42.62" width="14.17" height="14.17"/><rect class="acac25e2-0e9c-4fc1-b442-57487254230f" x="42.66" y="42.62" width="14.17" height="14.17"/><rect class="acac25e2-0e9c-4fc1-b442-57487254230f" x="56.83" y="42.62" width="14.17" height="14.17"/><rect class="acac25e2-0e9c-4fc1-b442-57487254230f" x="71" y="42.62" width="14.17" height="14.17"/><rect class="acac25e2-0e9c-4fc1-b442-57487254230f" x="85.18" y="42.62" width="14.17" height="14.17"/><rect class="acac25e2-0e9c-4fc1-b442-57487254230f" x="99.35" y="42.62" width="14.17" height="14.17"/><rect class="acac25e2-0e9c-4fc1-b442-57487254230f" x="113.52" y="42.62" width="14.17" height="14.17"/><rect class="acac25e2-0e9c-4fc1-b442-57487254230f" x="127.7" y="42.62" width="14.17" height="14.17"/><rect class="acac25e2-0e9c-4fc1-b442-57487254230f" x="141.87" y="42.62" width="14.17" height="14.17"/><rect class="acac25e2-0e9c-4fc1-b442-57487254230f" x="156.04" y="42.62" width="14.17" height="14.17"/><rect class="acac25e2-0e9c-4fc1-b442-57487254230f" x="170.22" y="42.62" width="14.17" height="14.17"/><rect class="acac25e2-0e9c-4fc1-b442-57487254230f" x="184.39" y="42.62" width="14.17" height="14.17"/><rect class="acac25e2-0e9c-4fc1-b442-57487254230f" x="198.56" y="42.62" width="14.17" height="14.17"/><rect class="acac25e2-0e9c-4fc1-b442-57487254230f" x="212.74" y="42.62" width="14.17" height="14.17"/><rect class="acac25e2-0e9c-4fc1-b442-57487254230f" x="226.91" y="42.62" width="14.17" height="14.17"/><rect class="acac25e2-0e9c-4fc1-b442-57487254230f" x="241.08" y="42.62" width="14.17" height="14.17"/><rect class="acac25e2-0e9c-4fc1-b442-57487254230f" x="255.26" y="42.62" width="14.17" height="14.17"/><rect class="acac25e2-0e9c-4fc1-b442-57487254230f" x="269.43" y="42.62" width="14.17" height="14.17"/><rect class="acac25e2-0e9c-4fc1-b442-57487254230f" x="0.14" y="28.45" width="14.17" height="14.17"/><rect class="acac25e2-0e9c-4fc1-b442-57487254230f" x="14.31" y="28.45" width="14.17" height="14.17"/><rect class="acac25e2-0e9c-4fc1-b442-57487254230f" x="28.48" y="28.45" width="14.17" height="14.17"/><rect class="acac25e2-0e9c-4fc1-b442-57487254230f" x="42.66" y="28.45" width="14.17" height="14.17"/><rect class="acac25e2-0e9c-4fc1-b442-57487254230f" x="56.83" y="28.45" width="14.17" height="14.17"/><rect class="acac25e2-0e9c-4fc1-b442-57487254230f" x="71" y="28.45" width="14.17" height="14.17"/><rect class="acac25e2-0e9c-4fc1-b442-57487254230f" x="85.18" y="28.45" width="14.17" height="14.17"/><rect class="acac25e2-0e9c-4fc1-b442-57487254230f" x="99.35" y="28.45" width="14.17" height="14.17"/><rect class="acac25e2-0e9c-4fc1-b442-57487254230f" x="113.52" y="28.45" width="14.17" height="14.17"/><rect class="acac25e2-0e9c-4fc1-b442-57487254230f" x="127.7" y="28.45" width="14.17" height="14.17"/><rect class="acac25e2-0e9c-4fc1-b442-57487254230f" x="141.87" y="28.45" width="14.17" height="14.17"/><rect class="acac25e2-0e9c-4fc1-b442-57487254230f" x="156.04" y="28.45" width="14.17" height="14.17"/><rect class="acac25e2-0e9c-4fc1-b442-57487254230f" x="170.22" y="28.45" width="14.17" height="14.17"/><rect class="acac25e2-0e9c-4fc1-b442-57487254230f" x="184.39" y="28.45" width="14.17" height="14.17"/><rect class="acac25e2-0e9c-4fc1-b442-57487254230f" x="198.56" y="28.45" width="14.17" height="14.17"/><rect class="acac25e2-0e9c-4fc1-b442-57487254230f" x="212.74" y="28.45" width="14.17" height="14.17"/><rect class="acac25e2-0e9c-4fc1-b442-57487254230f" x="226.91" y="28.45" width="14.17" height="14.17"/><rect class="acac25e2-0e9c-4fc1-b442-57487254230f" x="241.08" y="28.45" width="14.17" height="14.17"/><rect class="acac25e2-0e9c-4fc1-b442-57487254230f" x="255.26" y="28.45" width="14.17" height="14.17"/><rect class="acac25e2-0e9c-4fc1-b442-57487254230f" x="269.43" y="28.45" width="14.17" height="14.17"/><rect class="acac25e2-0e9c-4fc1-b442-57487254230f" x="0.14" y="14.27" width="14.17" height="14.17"/><rect class="acac25e2-0e9c-4fc1-b442-57487254230f" x="14.31" y="14.27" width="14.17" height="14.17"/><rect class="acac25e2-0e9c-4fc1-b442-57487254230f" x="28.48" y="14.27" width="14.17" height="14.17"/><rect class="acac25e2-0e9c-4fc1-b442-57487254230f" x="42.66" y="14.27" width="14.17" height="14.17"/><rect class="acac25e2-0e9c-4fc1-b442-57487254230f" x="56.83" y="14.27" width="14.17" height="14.17"/><rect class="acac25e2-0e9c-4fc1-b442-57487254230f" x="71" y="14.27" width="14.17" height="14.17"/><rect class="acac25e2-0e9c-4fc1-b442-57487254230f" x="85.18" y="14.27" width="14.17" height="14.17"/><rect class="acac25e2-0e9c-4fc1-b442-57487254230f" x="99.35" y="14.27" width="14.17" height="14.17"/><rect class="acac25e2-0e9c-4fc1-b442-57487254230f" x="113.52" y="14.27" width="14.17" height="14.17"/><rect class="acac25e2-0e9c-4fc1-b442-57487254230f" x="127.7" y="14.27" width="14.17" height="14.17"/><rect class="acac25e2-0e9c-4fc1-b442-57487254230f" x="141.87" y="14.27" width="14.17" height="14.17"/><rect class="acac25e2-0e9c-4fc1-b442-57487254230f" x="156.04" y="14.27" width="14.17" height="14.17"/><rect class="acac25e2-0e9c-4fc1-b442-57487254230f" x="170.22" y="14.27" width="14.17" height="14.17"/><rect class="acac25e2-0e9c-4fc1-b442-57487254230f" x="184.39" y="14.27" width="14.17" height="14.17"/><rect class="acac25e2-0e9c-4fc1-b442-57487254230f" x="198.56" y="14.27" width="14.17" height="14.17"/><rect class="acac25e2-0e9c-4fc1-b442-57487254230f" x="212.74" y="14.27" width="14.17" height="14.17"/><rect class="acac25e2-0e9c-4fc1-b442-57487254230f" x="226.91" y="14.27" width="14.17" height="14.17"/><rect class="acac25e2-0e9c-4fc1-b442-57487254230f" x="241.08" y="14.27" width="14.17" height="14.17"/><rect class="acac25e2-0e9c-4fc1-b442-57487254230f" x="255.26" y="14.27" width="14.17" height="14.17"/><rect class="acac25e2-0e9c-4fc1-b442-57487254230f" x="269.43" y="14.27" width="14.17" height="14.17"/><rect class="acac25e2-0e9c-4fc1-b442-57487254230f" x="0.14" y="0.1" width="14.17" height="14.17"/><rect class="acac25e2-0e9c-4fc1-b442-57487254230f" x="14.31" y="0.1" width="14.17" height="14.17"/><rect class="acac25e2-0e9c-4fc1-b442-57487254230f" x="28.48" y="0.1" width="14.17" height="14.17"/><rect class="acac25e2-0e9c-4fc1-b442-57487254230f" x="42.66" y="0.1" width="14.17" height="14.17"/><rect class="acac25e2-0e9c-4fc1-b442-57487254230f" x="56.83" y="0.1" width="14.17" height="14.17"/><rect class="acac25e2-0e9c-4fc1-b442-57487254230f" x="71" y="0.1" width="14.17" height="14.17"/><rect class="acac25e2-0e9c-4fc1-b442-57487254230f" x="85.18" y="0.1" width="14.17" height="14.17"/><rect class="acac25e2-0e9c-4fc1-b442-57487254230f" x="99.35" y="0.1" width="14.17" height="14.17"/><rect class="acac25e2-0e9c-4fc1-b442-57487254230f" x="113.52" y="0.1" width="14.17" height="14.17"/><rect class="acac25e2-0e9c-4fc1-b442-57487254230f" x="127.7" y="0.1" width="14.17" height="14.17"/><rect class="acac25e2-0e9c-4fc1-b442-57487254230f" x="141.87" y="0.1" width="14.17" height="14.17"/><rect class="acac25e2-0e9c-4fc1-b442-57487254230f" x="156.04" y="0.1" width="14.17" height="14.17"/><rect class="acac25e2-0e9c-4fc1-b442-57487254230f" x="170.22" y="0.1" width="14.17" height="14.17"/><rect class="acac25e2-0e9c-4fc1-b442-57487254230f" x="184.39" y="0.1" width="14.17" height="14.17"/><rect class="acac25e2-0e9c-4fc1-b442-57487254230f" x="198.56" y="0.1" width="14.17" height="14.17"/><rect class="acac25e2-0e9c-4fc1-b442-57487254230f" x="212.74" y="0.1" width="14.17" height="14.17"/><rect class="acac25e2-0e9c-4fc1-b442-57487254230f" x="226.91" y="0.1" width="14.17" height="14.17"/><rect class="acac25e2-0e9c-4fc1-b442-57487254230f" x="241.08" y="0.1" width="14.17" height="14.17"/><rect class="acac25e2-0e9c-4fc1-b442-57487254230f" x="255.26" y="0.1" width="14.17" height="14.17"/><rect class="acac25e2-0e9c-4fc1-b442-57487254230f" x="269.43" y="0.1" width="14.17" height="14.17"/><rect class="acac25e2-0e9c-4fc1-b442-57487254230f" x="0.14" y="170.18" width="14.17" height="14.17"/><rect class="acac25e2-0e9c-4fc1-b442-57487254230f" x="14.31" y="170.18" width="14.17" height="14.17"/><rect class="acac25e2-0e9c-4fc1-b442-57487254230f" x="28.48" y="170.18" width="14.17" height="14.17"/><rect class="acac25e2-0e9c-4fc1-b442-57487254230f" x="42.66" y="170.18" width="14.17" height="14.17"/><rect class="acac25e2-0e9c-4fc1-b442-57487254230f" x="56.83" y="170.18" width="14.17" height="14.17"/><rect class="acac25e2-0e9c-4fc1-b442-57487254230f" x="71" y="170.18" width="14.17" height="14.17"/><rect class="acac25e2-0e9c-4fc1-b442-57487254230f" x="85.18" y="170.18" width="14.17" height="14.17"/><rect class="acac25e2-0e9c-4fc1-b442-57487254230f" x="99.35" y="170.18" width="14.17" height="14.17"/><rect class="acac25e2-0e9c-4fc1-b442-57487254230f" x="113.52" y="170.18" width="14.17" height="14.17"/><rect class="acac25e2-0e9c-4fc1-b442-57487254230f" x="127.7" y="170.18" width="14.17" height="14.17"/><rect class="acac25e2-0e9c-4fc1-b442-57487254230f" x="141.87" y="170.18" width="14.17" height="14.17"/><rect class="acac25e2-0e9c-4fc1-b442-57487254230f" x="156.04" y="170.18" width="14.17" height="14.17"/><rect class="acac25e2-0e9c-4fc1-b442-57487254230f" x="170.22" y="170.18" width="14.17" height="14.17"/><rect class="acac25e2-0e9c-4fc1-b442-57487254230f" x="184.39" y="170.18" width="14.17" height="14.17"/><rect class="acac25e2-0e9c-4fc1-b442-57487254230f" x="198.56" y="170.18" width="14.17" height="14.17"/><rect class="acac25e2-0e9c-4fc1-b442-57487254230f" x="212.74" y="170.18" width="14.17" height="14.17"/><rect class="acac25e2-0e9c-4fc1-b442-57487254230f" x="226.91" y="170.18" width="14.17" height="14.17"/><rect class="acac25e2-0e9c-4fc1-b442-57487254230f" x="241.08" y="170.18" width="14.17" height="14.17"/><rect class="acac25e2-0e9c-4fc1-b442-57487254230f" x="255.26" y="170.18" width="14.17" height="14.17"/><rect class="acac25e2-0e9c-4fc1-b442-57487254230f" x="269.43" y="170.18" width="14.17" height="14.17"/><rect class="acac25e2-0e9c-4fc1-b442-57487254230f" x="0.14" y="184.35" width="14.17" height="14.17"/><rect class="acac25e2-0e9c-4fc1-b442-57487254230f" x="14.31" y="184.35" width="14.17" height="14.17"/><rect class="acac25e2-0e9c-4fc1-b442-57487254230f" x="28.48" y="184.35" width="14.17" height="14.17"/><rect class="acac25e2-0e9c-4fc1-b442-57487254230f" x="42.66" y="184.35" width="14.17" height="14.17"/><rect class="acac25e2-0e9c-4fc1-b442-57487254230f" x="56.83" y="184.35" width="14.17" height="14.17"/><rect class="acac25e2-0e9c-4fc1-b442-57487254230f" x="71" y="184.35" width="14.17" height="14.17"/><rect class="acac25e2-0e9c-4fc1-b442-57487254230f" x="85.18" y="184.35" width="14.17" height="14.17"/><rect class="acac25e2-0e9c-4fc1-b442-57487254230f" x="99.35" y="184.35" width="14.17" height="14.17"/><rect class="acac25e2-0e9c-4fc1-b442-57487254230f" x="113.52" y="184.35" width="14.17" height="14.17"/><rect class="acac25e2-0e9c-4fc1-b442-57487254230f" x="127.7" y="184.35" width="14.17" height="14.17"/><rect class="acac25e2-0e9c-4fc1-b442-57487254230f" x="141.87" y="184.35" width="14.17" height="14.17"/><rect class="acac25e2-0e9c-4fc1-b442-57487254230f" x="156.04" y="184.35" width="14.17" height="14.17"/><rect class="acac25e2-0e9c-4fc1-b442-57487254230f" x="170.22" y="184.35" width="14.17" height="14.17"/><rect class="acac25e2-0e9c-4fc1-b442-57487254230f" x="184.39" y="184.35" width="14.17" height="14.17"/><rect class="acac25e2-0e9c-4fc1-b442-57487254230f" x="198.56" y="184.35" width="14.17" height="14.17"/><rect class="acac25e2-0e9c-4fc1-b442-57487254230f" x="212.74" y="184.35" width="14.17" height="14.17"/><rect class="acac25e2-0e9c-4fc1-b442-57487254230f" x="226.91" y="184.35" width="14.17" height="14.17"/><rect class="acac25e2-0e9c-4fc1-b442-57487254230f" x="241.08" y="184.35" width="14.17" height="14.17"/><rect class="acac25e2-0e9c-4fc1-b442-57487254230f" x="255.26" y="184.35" width="14.17" height="14.17"/><rect class="acac25e2-0e9c-4fc1-b442-57487254230f" x="269.43" y="184.35" width="14.17" height="14.17"/><rect class="acac25e2-0e9c-4fc1-b442-57487254230f" x="0.14" y="198.53" width="14.17" height="14.17"/><rect class="acac25e2-0e9c-4fc1-b442-57487254230f" x="14.31" y="198.53" width="14.17" height="14.17"/><rect class="acac25e2-0e9c-4fc1-b442-57487254230f" x="28.48" y="198.53" width="14.17" height="14.17"/><rect class="acac25e2-0e9c-4fc1-b442-57487254230f" x="42.66" y="198.53" width="14.17" height="14.17"/><rect class="acac25e2-0e9c-4fc1-b442-57487254230f" x="56.83" y="198.53" width="14.17" height="14.17"/><rect class="acac25e2-0e9c-4fc1-b442-57487254230f" x="71" y="198.53" width="14.17" height="14.17"/><rect class="acac25e2-0e9c-4fc1-b442-57487254230f" x="85.18" y="198.53" width="14.17" height="14.17"/><rect class="acac25e2-0e9c-4fc1-b442-57487254230f" x="99.35" y="198.53" width="14.17" height="14.17"/><rect class="acac25e2-0e9c-4fc1-b442-57487254230f" x="113.52" y="198.53" width="14.17" height="14.17"/><rect class="acac25e2-0e9c-4fc1-b442-57487254230f" x="127.7" y="198.53" width="14.17" height="14.17"/><rect class="acac25e2-0e9c-4fc1-b442-57487254230f" x="141.87" y="198.53" width="14.17" height="14.17"/><rect class="acac25e2-0e9c-4fc1-b442-57487254230f" x="156.04" y="198.53" width="14.17" height="14.17"/><rect class="acac25e2-0e9c-4fc1-b442-57487254230f" x="170.22" y="198.53" width="14.17" height="14.17"/><rect class="acac25e2-0e9c-4fc1-b442-57487254230f" x="184.39" y="198.53" width="14.17" height="14.17"/><rect class="acac25e2-0e9c-4fc1-b442-57487254230f" x="198.56" y="198.53" width="14.17" height="14.17"/><rect class="acac25e2-0e9c-4fc1-b442-57487254230f" x="212.74" y="198.53" width="14.17" height="14.17"/><rect class="acac25e2-0e9c-4fc1-b442-57487254230f" x="226.91" y="198.53" width="14.17" height="14.17"/><rect class="acac25e2-0e9c-4fc1-b442-57487254230f" x="241.08" y="198.53" width="14.17" height="14.17"/><rect class="acac25e2-0e9c-4fc1-b442-57487254230f" x="255.26" y="198.53" width="14.17" height="14.17"/><rect class="acac25e2-0e9c-4fc1-b442-57487254230f" x="269.43" y="198.53" width="14.17" height="14.17"/><rect class="acac25e2-0e9c-4fc1-b442-57487254230f" x="0.14" y="212.7" width="14.17" height="14.17"/><rect class="acac25e2-0e9c-4fc1-b442-57487254230f" x="14.31" y="212.7" width="14.17" height="14.17"/><rect class="acac25e2-0e9c-4fc1-b442-57487254230f" x="28.48" y="212.7" width="14.17" height="14.17"/><rect class="acac25e2-0e9c-4fc1-b442-57487254230f" x="42.66" y="212.7" width="14.17" height="14.17"/><rect class="acac25e2-0e9c-4fc1-b442-57487254230f" x="56.83" y="212.7" width="14.17" height="14.17"/><rect class="acac25e2-0e9c-4fc1-b442-57487254230f" x="71" y="212.7" width="14.17" height="14.17"/><rect class="acac25e2-0e9c-4fc1-b442-57487254230f" x="85.18" y="212.7" width="14.17" height="14.17"/><rect class="acac25e2-0e9c-4fc1-b442-57487254230f" x="99.35" y="212.7" width="14.17" height="14.17"/><rect class="acac25e2-0e9c-4fc1-b442-57487254230f" x="113.52" y="212.7" width="14.17" height="14.17"/><rect class="acac25e2-0e9c-4fc1-b442-57487254230f" x="127.7" y="212.7" width="14.17" height="14.17"/><rect class="acac25e2-0e9c-4fc1-b442-57487254230f" x="141.87" y="212.7" width="14.17" height="14.17"/><rect class="acac25e2-0e9c-4fc1-b442-57487254230f" x="156.04" y="212.7" width="14.17" height="14.17"/><rect class="acac25e2-0e9c-4fc1-b442-57487254230f" x="170.22" y="212.7" width="14.17" height="14.17"/><rect class="acac25e2-0e9c-4fc1-b442-57487254230f" x="184.39" y="212.7" width="14.17" height="14.17"/><rect class="acac25e2-0e9c-4fc1-b442-57487254230f" x="198.56" y="212.7" width="14.17" height="14.17"/><rect class="acac25e2-0e9c-4fc1-b442-57487254230f" x="212.74" y="212.7" width="14.17" height="14.17"/><rect class="acac25e2-0e9c-4fc1-b442-57487254230f" x="226.91" y="212.7" width="14.17" height="14.17"/><rect class="acac25e2-0e9c-4fc1-b442-57487254230f" x="241.08" y="212.7" width="14.17" height="14.17"/><rect class="acac25e2-0e9c-4fc1-b442-57487254230f" x="255.26" y="212.7" width="14.17" height="14.17"/><rect class="acac25e2-0e9c-4fc1-b442-57487254230f" x="269.43" y="212.7" width="14.17" height="14.17"/><rect class="acac25e2-0e9c-4fc1-b442-57487254230f" x="0.14" y="226.88" width="14.17" height="14.17"/><rect class="acac25e2-0e9c-4fc1-b442-57487254230f" x="14.31" y="226.88" width="14.17" height="14.17"/><rect class="acac25e2-0e9c-4fc1-b442-57487254230f" x="28.48" y="226.88" width="14.17" height="14.17"/><rect class="acac25e2-0e9c-4fc1-b442-57487254230f" x="42.66" y="226.88" width="14.17" height="14.17"/><rect class="acac25e2-0e9c-4fc1-b442-57487254230f" x="56.83" y="226.88" width="14.17" height="14.17"/><rect class="acac25e2-0e9c-4fc1-b442-57487254230f" x="71" y="226.88" width="14.17" height="14.17"/><rect class="acac25e2-0e9c-4fc1-b442-57487254230f" x="85.18" y="226.88" width="14.17" height="14.17"/><rect class="acac25e2-0e9c-4fc1-b442-57487254230f" x="99.35" y="226.88" width="14.17" height="14.17"/><rect class="acac25e2-0e9c-4fc1-b442-57487254230f" x="113.52" y="226.88" width="14.17" height="14.17"/><rect class="acac25e2-0e9c-4fc1-b442-57487254230f" x="127.7" y="226.88" width="14.17" height="14.17"/><rect class="acac25e2-0e9c-4fc1-b442-57487254230f" x="141.87" y="226.88" width="14.17" height="14.17"/><rect class="acac25e2-0e9c-4fc1-b442-57487254230f" x="156.04" y="226.88" width="14.17" height="14.17"/><rect class="acac25e2-0e9c-4fc1-b442-57487254230f" x="170.22" y="226.88" width="14.17" height="14.17"/><rect class="acac25e2-0e9c-4fc1-b442-57487254230f" x="184.39" y="226.88" width="14.17" height="14.17"/><rect class="acac25e2-0e9c-4fc1-b442-57487254230f" x="198.56" y="226.88" width="14.17" height="14.17"/><rect class="acac25e2-0e9c-4fc1-b442-57487254230f" x="212.74" y="226.88" width="14.17" height="14.17"/><rect class="acac25e2-0e9c-4fc1-b442-57487254230f" x="226.91" y="226.88" width="14.17" height="14.17"/><rect class="acac25e2-0e9c-4fc1-b442-57487254230f" x="241.08" y="226.88" width="14.17" height="14.17"/><rect class="acac25e2-0e9c-4fc1-b442-57487254230f" x="255.26" y="226.88" width="14.17" height="14.17"/><rect class="acac25e2-0e9c-4fc1-b442-57487254230f" x="269.43" y="226.88" width="14.17" height="14.17"/><rect class="acac25e2-0e9c-4fc1-b442-57487254230f" x="0.14" y="241.05" width="14.17" height="14.17"/><rect class="acac25e2-0e9c-4fc1-b442-57487254230f" x="14.31" y="241.05" width="14.17" height="14.17"/><rect class="acac25e2-0e9c-4fc1-b442-57487254230f" x="28.48" y="241.05" width="14.17" height="14.17"/><rect class="acac25e2-0e9c-4fc1-b442-57487254230f" x="42.66" y="241.05" width="14.17" height="14.17"/><rect class="acac25e2-0e9c-4fc1-b442-57487254230f" x="56.83" y="241.05" width="14.17" height="14.17"/><rect class="acac25e2-0e9c-4fc1-b442-57487254230f" x="71" y="241.05" width="14.17" height="14.17"/><rect class="acac25e2-0e9c-4fc1-b442-57487254230f" x="85.18" y="241.05" width="14.17" height="14.17"/><rect class="acac25e2-0e9c-4fc1-b442-57487254230f" x="99.35" y="241.05" width="14.17" height="14.17"/><rect class="acac25e2-0e9c-4fc1-b442-57487254230f" x="113.52" y="241.05" width="14.17" height="14.17"/><rect class="acac25e2-0e9c-4fc1-b442-57487254230f" x="127.7" y="241.05" width="14.17" height="14.17"/><rect class="acac25e2-0e9c-4fc1-b442-57487254230f" x="141.87" y="241.05" width="14.17" height="14.17"/><rect class="acac25e2-0e9c-4fc1-b442-57487254230f" x="156.04" y="241.05" width="14.17" height="14.17"/><rect class="acac25e2-0e9c-4fc1-b442-57487254230f" x="170.22" y="241.05" width="14.17" height="14.17"/><rect class="acac25e2-0e9c-4fc1-b442-57487254230f" x="184.39" y="241.05" width="14.17" height="14.17"/><rect class="acac25e2-0e9c-4fc1-b442-57487254230f" x="198.56" y="241.05" width="14.17" height="14.17"/><rect class="acac25e2-0e9c-4fc1-b442-57487254230f" x="212.74" y="241.05" width="14.17" height="14.17"/><rect class="acac25e2-0e9c-4fc1-b442-57487254230f" x="226.91" y="241.05" width="14.17" height="14.17"/><rect class="acac25e2-0e9c-4fc1-b442-57487254230f" x="241.08" y="241.05" width="14.17" height="14.17"/><rect class="acac25e2-0e9c-4fc1-b442-57487254230f" x="255.26" y="241.05" width="14.17" height="14.17"/><rect class="acac25e2-0e9c-4fc1-b442-57487254230f" x="269.43" y="241.05" width="14.17" height="14.17"/><rect class="acac25e2-0e9c-4fc1-b442-57487254230f" x="0.14" y="255.22" width="14.17" height="14.17"/><rect class="acac25e2-0e9c-4fc1-b442-57487254230f" x="14.31" y="255.22" width="14.17" height="14.17"/><rect class="acac25e2-0e9c-4fc1-b442-57487254230f" x="28.48" y="255.22" width="14.17" height="14.17"/><rect class="acac25e2-0e9c-4fc1-b442-57487254230f" x="42.66" y="255.22" width="14.17" height="14.17"/><rect class="acac25e2-0e9c-4fc1-b442-57487254230f" x="56.83" y="255.22" width="14.17" height="14.17"/><rect class="acac25e2-0e9c-4fc1-b442-57487254230f" x="71" y="255.22" width="14.17" height="14.17"/><rect class="acac25e2-0e9c-4fc1-b442-57487254230f" x="85.18" y="255.22" width="14.17" height="14.17"/><rect class="acac25e2-0e9c-4fc1-b442-57487254230f" x="99.35" y="255.22" width="14.17" height="14.17"/><rect class="acac25e2-0e9c-4fc1-b442-57487254230f" x="113.52" y="255.22" width="14.17" height="14.17"/><rect class="acac25e2-0e9c-4fc1-b442-57487254230f" x="127.7" y="255.22" width="14.17" height="14.17"/><rect class="acac25e2-0e9c-4fc1-b442-57487254230f" x="141.87" y="255.22" width="14.17" height="14.17"/><rect class="acac25e2-0e9c-4fc1-b442-57487254230f" x="156.04" y="255.22" width="14.17" height="14.17"/><rect class="acac25e2-0e9c-4fc1-b442-57487254230f" x="170.22" y="255.22" width="14.17" height="14.17"/><rect class="acac25e2-0e9c-4fc1-b442-57487254230f" x="184.39" y="255.22" width="14.17" height="14.17"/><rect class="acac25e2-0e9c-4fc1-b442-57487254230f" x="198.56" y="255.22" width="14.17" height="14.17"/><rect class="acac25e2-0e9c-4fc1-b442-57487254230f" x="212.74" y="255.22" width="14.17" height="14.17"/><rect class="acac25e2-0e9c-4fc1-b442-57487254230f" x="226.91" y="255.22" width="14.17" height="14.17"/><rect class="acac25e2-0e9c-4fc1-b442-57487254230f" x="241.08" y="255.22" width="14.17" height="14.17"/><rect class="acac25e2-0e9c-4fc1-b442-57487254230f" x="255.26" y="255.22" width="14.17" height="14.17"/><rect class="acac25e2-0e9c-4fc1-b442-57487254230f" x="269.43" y="255.22" width="14.17" height="14.17"/><rect class="acac25e2-0e9c-4fc1-b442-57487254230f" x="0.14" y="269.4" width="14.17" height="14.17"/><rect class="acac25e2-0e9c-4fc1-b442-57487254230f" x="14.31" y="269.4" width="14.17" height="14.17"/><rect class="acac25e2-0e9c-4fc1-b442-57487254230f" x="28.48" y="269.4" width="14.17" height="14.17"/><rect class="acac25e2-0e9c-4fc1-b442-57487254230f" x="42.66" y="269.4" width="14.17" height="14.17"/><rect class="acac25e2-0e9c-4fc1-b442-57487254230f" x="56.83" y="269.4" width="14.17" height="14.17"/><rect class="acac25e2-0e9c-4fc1-b442-57487254230f" x="71" y="269.4" width="14.17" height="14.17"/><rect class="acac25e2-0e9c-4fc1-b442-57487254230f" x="85.18" y="269.4" width="14.17" height="14.17"/><rect class="acac25e2-0e9c-4fc1-b442-57487254230f" x="99.35" y="269.4" width="14.17" height="14.17"/><rect class="acac25e2-0e9c-4fc1-b442-57487254230f" x="113.52" y="269.4" width="14.17" height="14.17"/><rect class="acac25e2-0e9c-4fc1-b442-57487254230f" x="127.7" y="269.4" width="14.17" height="14.17"/><rect class="acac25e2-0e9c-4fc1-b442-57487254230f" x="141.87" y="269.4" width="14.17" height="14.17"/><rect class="acac25e2-0e9c-4fc1-b442-57487254230f" x="156.04" y="269.4" width="14.17" height="14.17"/><rect class="acac25e2-0e9c-4fc1-b442-57487254230f" x="170.22" y="269.4" width="14.17" height="14.17"/><rect class="acac25e2-0e9c-4fc1-b442-57487254230f" x="184.39" y="269.4" width="14.17" height="14.17"/><rect class="acac25e2-0e9c-4fc1-b442-57487254230f" x="198.56" y="269.4" width="14.17" height="14.17"/><rect class="acac25e2-0e9c-4fc1-b442-57487254230f" x="212.74" y="269.4" width="14.17" height="14.17"/><rect class="acac25e2-0e9c-4fc1-b442-57487254230f" x="226.91" y="269.4" width="14.17" height="14.17"/><rect class="acac25e2-0e9c-4fc1-b442-57487254230f" x="241.08" y="269.4" width="14.17" height="14.17"/><rect class="acac25e2-0e9c-4fc1-b442-57487254230f" x="255.26" y="269.4" width="14.17" height="14.17"/><rect class="acac25e2-0e9c-4fc1-b442-57487254230f" x="269.43" y="269.4" width="14.17" height="14.17"/></g></g></svg>